<svg xmlns="http://www.w3.org/2000/svg" viewBox="0 0 48 48" id="logout">
  <path d="M46 24c0 12.13-9.87 22-22 22-8.45 0-16.25-4.93-19.88-12.57-.24-.5-.02-1.1.47-1.33.5-.24 1.09-.02 1.33.47C9.22 39.51 16.32 44 24 44c11.03 0 20-8.97 20-20S35.03 4 24 4C16.32 4 9.22 8.49 5.92 15.43c-.24.5-.83.71-1.33.47a.993.993 0 0 1-.47-1.33C7.75 6.93 15.55 2 24 2c12.13 0 22 9.87 22 22m-19.95 8.05a.996.996 0 0 0 .71 1.7c.26 0 .51-.1.71-.29l8.76-8.76a.996.996 0 0 0 0-1.41l-8.76-8.76a.996.996 0 1 0-1.41 1.41l7.05 7.05H3c-.55 0-1 .45-1 1s.45 1 1 1h30.11l-7.05 7.05Z"></path>
<path fill="#ffffff" d="M46 24c0 12.13-9.87 22-22 22-8.45 0-16.25-4.93-19.88-12.57-.24-.5-.02-1.1.47-1.33.5-.24 1.09-.02 1.33.47C9.22 39.51 16.32 44 24 44c11.03 0 20-8.97 20-20S35.03 4 24 4C16.32 4 9.22 8.49 5.92 15.43c-.24.5-.83.71-1.33.47a.993.993 0 0 1-.47-1.33C7.75 6.93 15.55 2 24 2c12.13 0 22 9.87 22 22m-19.95 8.05a.996.996 0 0 0 .71 1.7c.26 0 .51-.1.71-.29l8.76-8.76a.996.996 0 0 0 0-1.41l-8.76-8.76a.996.996 0 1 0-1.41 1.41l7.05 7.05H3c-.55 0-1 .45-1 1s.45 1 1 1h30.11l-7.05 7.05Z"/>

</svg>
